<svg version="1.1" xmlns="http://www.w3.org/2000/svg" viewBox="0 0 415 212.5" width="830" height="425">
  <!-- svg-source:excalidraw -->
  
  <defs>
    <style>
      @font-face {
        font-family: "Virgil";
        src: url("/static/Virgil.woff2");
      }
    </style>
  </defs>
  <rect x="0" y="0" width="415" height="212.5" fill="#ffffff"></rect><g transform="translate(165 10) rotate(0 5 12.5)"><text x="0" y="18" font-family="Virgil, Segoe UI Emoji" font-size="20px" fill="#000000" text-anchor="start" style="white-space: pre;" direction="ltr">*</text></g><g transform="translate(75 84.5) rotate(0 6.5 12.5)"><text x="0" y="18" font-family="Virgil, Segoe UI Emoji" font-size="20px" fill="#000000" text-anchor="start" style="white-space: pre;" direction="ltr">+</text></g><g transform="translate(253 84.5) rotate(0 6.5 12.5)"><text x="0" y="18" font-family="Virgil, Segoe UI Emoji" font-size="20px" fill="#000000" text-anchor="start" style="white-space: pre;" direction="ltr">+</text></g><g transform="translate(10 177.5) rotate(0 2.5 12.5)"><text x="0" y="18" font-family="Virgil, Segoe UI Emoji" font-size="20px" fill="#000000" text-anchor="start" style="white-space: pre;" direction="ltr">1</text></g><g transform="translate(115 177.5) rotate(0 7 12.5)"><text x="0" y="18" font-family="Virgil, Segoe UI Emoji" font-size="20px" fill="#000000" text-anchor="start" style="white-space: pre;" direction="ltr">2</text></g><g transform="translate(202 177.5) rotate(0 7 12.5)"><text x="0" y="18" font-family="Virgil, Segoe UI Emoji" font-size="20px" fill="#000000" text-anchor="start" style="white-space: pre;" direction="ltr">3</text></g><g transform="translate(323 177.5) rotate(0 6.5 12.5)"><text x="0" y="18" font-family="Virgil, Segoe UI Emoji" font-size="20px" fill="#000000" text-anchor="start" style="white-space: pre;" direction="ltr">4</text></g><g stroke-linecap="round"><g transform="translate(153.65733954617758 38.04448359422386) rotate(0 -30.37999543721787 24.999368806742126)"><path d="M-0.36 -0.96 C-10.36 7.63, -50.95 42.28, -61.19 50.95 M1.66 1.16 C-8.44 9.48, -52.23 41.33, -62.42 49.36" stroke="#000000" stroke-width="1" fill="none"></path></g></g><g stroke-linecap="round"><g transform="translate(183 37) rotate(0 29.01821254962124 21.337982766842472)"><path d="M0.44 -0.35 C10.18 7.18, 49.24 36.93, 58.83 44.26 M-0.79 -1.59 C8.74 5.64, 47.6 34.54, 57.79 42.28" stroke="#000000" stroke-width="1" fill="none"></path></g></g><g stroke-linecap="round"><g transform="translate(71 113) rotate(0 -23.004279722645833 26.313508160784835)"><path d="M0.89 -0.71 C-6.99 8.04, -38.92 44.37, -46.9 53.33 M-0.1 1.54 C-7.64 9.83, -37.24 42.57, -44.66 51.39" stroke="#000000" stroke-width="1" fill="none"></path></g></g><g stroke-linecap="round"><g transform="translate(93 111) rotate(0 12.95326057277623 28.04110847987235)"><path d="M0.34 0.95 C4.64 10.26, 22.55 46.61, 26.85 55.69 M-0.95 0.4 C3.1 9.39, 20.9 45.11, 25.83 53.92" stroke="#000000" stroke-width="1" fill="none"></path></g></g><g stroke-linecap="round"><g transform="translate(254 111) rotate(0 -19.33553266710601 27.692626125430706)"><path d="M-1.2 -0.17 C-7.88 9.32, -32.81 47.32, -39.04 56.7 M0.37 -1.31 C-6.04 7.86, -30.21 45.15, -36.88 54.94" stroke="#000000" stroke-width="1" fill="none"></path></g></g><g stroke-linecap="round"><g transform="translate(269 111) rotate(0 25.259736498072755 28.73591663829052)"><path d="M-0.92 -1.06 C7.68 8.4, 42.59 47.45, 51.44 57.34 M0.8 1 C9.21 10.55, 41.75 48.73, 50.2 58.53" stroke="#000000" stroke-width="1" fill="none"></path></g></g><g transform="translate(293 11) rotate(0 56 12.5)"><text x="0" y="18" font-family="Virgil, Segoe UI Emoji" font-size="20px" fill="#000000" text-anchor="start" style="white-space: pre;" direction="ltr">(1+2)*(3+4)</text></g></svg>