<svg version="1.1" xmlns="http://www.w3.org/2000/svg" viewBox="0 0 837 164" width="1674" height="328">
  <!-- svg-source:excalidraw -->
  
  <defs>
    <style>
      @font-face {
        font-family: "Virgil";
        src: url("../../../../../static/Virgil.html");
      }
    </style>
  </defs>
  <rect x="0" y="0" width="837" height="164" fill="#ffffff"></rect><g stroke-linecap="round" transform="translate(253 10) rotate(0 84 23)"><path d="M0 0 C0 0, 0 0, 0 0 M0 0 C0 0, 0 0, 0 0 M-0.97 6 C1.16 5.25, 3.14 2.98, 4.51 0.09 M-0.31 6.64 C1.53 4.08, 3.17 1.94, 4.7 0.16 M0.34 10.69 C3.05 7.9, 4.53 5.09, 10.02 1 M0.44 12.77 C2.45 10.19, 4.04 7.74, 11.07 0.14 M-0.92 18.57 C2.57 13.76, 4.42 10.25, 13.96 0.55 M0.1 18.22 C4.28 14.38, 6.5 11.35, 15.53 0.24 M-1.42 25.7 C7.89 12.57, 17.18 5.87, 22.01 -0.46 M0.32 23.39 C4.56 18.64, 9.32 13.67, 20.79 0.46 M-1.22 31.44 C8.26 21.7, 11.79 15.91, 25.97 0.58 M-0.36 30.72 C8.87 19.71, 19.26 8.73, 26.07 0.34 M-1.31 38.03 C14.13 20.98, 26.35 8.27, 30.25 -1.88 M0.45 36.47 C7.08 27.16, 16.65 18.01, 31.28 -1.06 M-0.38 42.36 C13.31 26.44, 27.17 13.48, 37.63 0.63 M1.09 41.76 C10.79 31.14, 20.07 19.53, 36.77 0.54 M-0.25 48.55 C12.74 33.55, 25.04 18.19, 43.73 -1.73 M2.07 46.88 C10.4 36.6, 19.11 25.81, 42.48 -0.81 M7.91 48.43 C16.05 37.75, 22.55 28.21, 46.92 0.85 M6.53 46.65 C18.9 31.95, 32.14 18, 47.62 0.33 M13.62 48.5 C19.69 36.76, 30.54 23.65, 54.8 1.53 M12.09 47.09 C19.74 38.05, 29.79 28.49, 53.82 -0.64 M16.02 45.58 C28.69 32.92, 43.22 16.83, 58.07 -1.31 M18.45 47.9 C25.45 38.58, 34.39 27.67, 58.77 -0.71 M21.93 49.24 C34.94 32.98, 46.08 17.82, 65.04 -0.28 M23.16 46.6 C32.95 36.24, 41.27 25.99, 63.4 -0.77 M28.21 45.53 C41.15 30.14, 55.06 14.67, 67.51 -1.15 M28.71 47.11 C41 32.39, 53.6 19.63, 69.51 0.12 M31.75 46.86 C46.44 34.93, 54.36 19.41, 75.24 0.94 M32.26 47.4 C45.21 34.02, 57.07 19.08, 74.95 -0.81 M39.89 47.76 C49.27 37.76, 58.22 25.13, 77.89 -0.67 M38.72 45.98 C54.05 30.84, 66.91 12.68, 79.27 -0.36 M44.36 46.73 C56.14 32.99, 64.12 22.45, 83.43 -0.41 M44.49 47.62 C57.26 31.27, 72.13 16.29, 84.85 -0.79 M47.71 46.03 C65.04 28.56, 82.88 7.61, 88.09 1.4 M48.55 47.82 C64.3 29.23, 78.73 13.79, 90.6 -0.23 M53.26 45.51 C67.65 34.25, 77.16 19.18, 94.82 -1.69 M54.12 46.5 C65.19 33.52, 78.67 19.75, 95.1 -0.09 M59.52 46.39 C74.04 31.04, 89.75 13.73, 99.19 -0.38 M59.88 46.53 C70.9 34.15, 82.86 21.54, 100.23 0.54 M66.16 49.12 C76.13 36.12, 86.34 24.84, 107.87 -1.92 M65.54 47.38 C73.89 37, 81.76 27.53, 106.37 -0.51 M71.75 45.91 C80.43 34.9, 88.28 26.39, 112.52 -0.18 M70.41 48.4 C83.72 32.15, 96.16 16.49, 112 -0.91 M75 46.79 C84.67 35.38, 91.93 26.16, 115.6 0.86 M76.29 46.71 C89.72 30.31, 103.98 12.85, 116.28 -0.48 M81.99 47.69 C91.23 33.86, 99.94 22.67, 123.59 1.14 M81.44 48.04 C92.22 35.15, 104.02 22.4, 121.9 0.66 M85.93 48.99 C100.28 32.4, 114.28 16.29, 126.2 0.66 M86.04 47.05 C99.38 31.16, 111.98 16.37, 127.09 0.93 M91.11 47.36 C102.36 32.43, 112.88 19.03, 132.15 -2.04 M90.92 47.95 C105.96 30.4, 123.01 12.39, 133.06 -0.39 M97.33 45.52 C110.28 31.44, 120.74 20.88, 137.12 2.02 M97.62 48.07 C107.09 35.65, 117.92 21.55, 136.71 -0.5 M103.84 48.1 C113.63 32.25, 124.55 18.87, 144.17 -2.02 M101.12 46.48 C112.61 36.2, 120.68 25.7, 142.75 0.42 M105.78 47.42 C119.78 36.42, 128.56 21.66, 147.7 -0.98 M107.97 47.55 C118.82 32.62, 131.72 19.06, 148.37 -0.11 M114.12 47.34 C122.45 38.17, 131.64 27.16, 153.84 0.15 M112.94 47.59 C126.05 33.88, 137.88 18.18, 153.38 0.66 M120.1 45.04 C130.95 28.59, 147.53 15.07, 160.47 2.02 M117.2 46.39 C130.71 33.19, 143.3 17.19, 158.91 -0.65 M123.14 46.83 C130.81 37.35, 141.13 24.75, 165.56 0.72 M122.93 47.85 C131.52 36.92, 141.67 26.23, 163.51 0.01 M127.31 45.99 C143.99 32.39, 156.64 15.02, 170.54 0.39 M129.55 47.57 C142.4 31.05, 155.85 16.37, 169.18 1.5 M133.27 46.57 C146.92 33.91, 161.56 18.32, 170.04 6.01 M134.28 47.44 C142.51 36.15, 152.62 26.42, 168.91 6.07 M138.66 45.18 C145.56 37.28, 151.43 30.21, 167.71 13.63 M138.39 47.22 C150.42 32.51, 163.84 19.77, 169.14 12.39 M146.12 46.84 C149.71 39.22, 156.95 31.51, 166.79 20.06 M143.8 47.15 C151.46 40.67, 157.12 33.23, 168.09 18.98 M151.63 46.78 C156.29 38.71, 165.32 27.95, 170.02 25.61 M149.26 47.54 C155.25 41.6, 158.87 37.11, 168.39 25.77 M156.52 46.23 C157.34 41.86, 161.52 38.28, 168.77 32.19 M154.97 47.37 C159.55 41.46, 163.95 35.85, 167.92 31.96 M160.15 46.49 C161.85 45.07, 164.57 41.81, 168.99 36.26 M160.75 47.52 C163.75 43.29, 167.17 38.87, 168.65 37.25 M165.85 47.34 C166.85 45.67, 167.24 44.55, 168.83 43.73 M165.44 47.22 C166.72 45.89, 168.34 44.36, 168.89 43.58" stroke="#ced4da" stroke-width="0.5" fill="none"></path><path d="M-1.16 -1.56 C49.27 1.79, 101.15 2.03, 166.2 1.81 M-0.22 -0.09 C36.78 -0.45, 73.39 0.29, 168.48 -0.83 M167.93 1.83 C167.49 14.89, 166.25 30.04, 167.34 45.91 M168.16 -0.87 C167.07 10.24, 168.25 19.2, 168.14 45.89 M167.38 45.76 C128.38 44.92, 86.08 43.77, 0.06 47.96 M167.45 46.63 C132.14 47.53, 96.18 46.91, 0.24 45.07 M0.5 45.5 C1.05 33.19, -1.77 23.62, 1.6 1.99 M-0.62 46.07 C0.34 33.83, -0.7 23.11, -0.77 0.54" stroke="#000000" stroke-width="1" fill="none"></path></g><g transform="translate(261 21.5) rotate(0 77 12.5)"><text x="77" y="18" font-family="Virgil, Segoe UI Emoji" font-size="20px" fill="#000000" text-anchor="middle" style="white-space: pre;" direction="ltr">Static Analyzer</text></g><g stroke-linecap="round" transform="translate(10 10) rotate(0 84 23)"><path d="M1.31 -1.06 C52.38 2.87, 101.45 2.33, 168.94 -1.64 M0.24 0.71 C35.1 -1.84, 70.78 -0.44, 168.02 -0.61 M166.82 -0.52 C168.05 9.96, 166.52 20.55, 167.95 46.75 M167.41 0.96 C167.13 15.39, 168.06 29.11, 168.31 45.89 M168.98 44.57 C113.93 44.12, 58.03 44.14, -0.76 47.21 M167.29 46.88 C130.41 43.93, 93.33 43.48, -0.79 45.96 M-0.5 47.08 C1.8 35.77, 1.21 22.69, 1.49 -0.58 M-0.96 45.7 C-0.45 30.18, -0.61 15.19, 0.44 0.11" stroke="#000000" stroke-width="1" fill="none"></path></g><g transform="translate(22 21.5) rotate(0 73 12.5)"><text x="73" y="18" font-family="Virgil, Segoe UI Emoji" font-size="20px" fill="#000000" text-anchor="middle" style="white-space: pre;" direction="ltr">Code or Binary</text></g><g stroke-linecap="round" transform="translate(485 10) rotate(0 84 23)"><path d="M1.16 -0.63 C41.13 -0.83, 84.46 -1.02, 168.68 0.49 M-0.27 0.36 C50.59 0.26, 102.63 0.33, 167.74 0.81 M167.06 -0.79 C168.35 14.64, 169.73 27.41, 169.06 46.28 M167.06 -0.97 C168.78 18.51, 168.54 35.81, 167.78 45.27 M166.65 46.93 C116.92 47.51, 61.02 46.8, -1.28 45.32 M168.17 45.91 C107.72 46.3, 46.73 46.45, -0.01 45.94 M-1.69 46.05 C-1.11 34.31, -0.71 24.14, -1.87 -1.17 M0.61 46.69 C-0.12 35.22, -0.31 22.82, -0.09 -0.64" stroke="#000000" stroke-width="1" fill="none"></path></g><g transform="translate(496.5 21.5) rotate(0 73.5 12.5)"><text x="73.5" y="18" font-family="Virgil, Segoe UI Emoji" font-size="20px" fill="#000000" text-anchor="middle" style="white-space: pre;" direction="ltr">Useful Results</text></g><g stroke-linecap="round"><g transform="translate(181 30.992626234994987) rotate(0 34.370543893948195 0.21992703953043247)"><path d="M-0.17 -0.44 C11.61 -0.13, 58.73 2.11, 70.46 2.15 M-1.72 -1.71 C9.88 -1.74, 56.83 0.26, 69.22 0.63" stroke="#000000" stroke-width="1" fill="none"></path></g><g transform="translate(181 30.992626234994987) rotate(0 34.370543893948195 0.21992703953043247)"><path d="M39.95 8.96 C50.57 5.96, 54.69 4.32, 71.19 2.52 M40.99 10.37 C51.48 6.53, 61.62 2.77, 68.48 0.35" stroke="#000000" stroke-width="1" fill="none"></path></g><g transform="translate(181 30.992626234994987) rotate(0 34.370543893948195 0.21992703953043247)"><path d="M40.69 -11.55 C51.15 -8.8, 55.07 -4.69, 71.19 2.52 M41.74 -10.13 C52.01 -6.41, 61.89 -2.61, 68.48 0.35" stroke="#000000" stroke-width="1" fill="none"></path></g></g><g stroke-linecap="round"><g transform="translate(423 34) rotate(0 30.486457330211977 -0.797805202268961)"><path d="M0.32 -0.06 C10.82 0, 51.85 0.23, 61.95 0.26 M-0.98 -1.14 C9.54 -1.45, 51.32 -2.16, 61.5 -1.72" stroke="#000000" stroke-width="1" fill="none"></path></g><g transform="translate(423 34) rotate(0 30.486457330211977 -0.797805202268961)"><path d="M33.12 9.9 C39.65 6, 45.41 4.24, 63.22 -3.4 M33.61 8.1 C43.14 5.29, 54.11 0.69, 61.84 -2.22" stroke="#000000" stroke-width="1" fill="none"></path></g><g transform="translate(423 34) rotate(0 30.486457330211977 -0.797805202268961)"><path d="M33.29 -10.62 C39.76 -10.19, 45.49 -7.61, 63.22 -3.4 M33.78 -12.42 C43.14 -7.47, 54.05 -4.32, 61.84 -2.22" stroke="#000000" stroke-width="1" fill="none"></path></g></g><g transform="translate(320 79) rotate(0 253.5 37.5)"><text x="253.5" y="18" font-family="Virgil, Segoe UI Emoji" font-size="20px" fill="#000000" text-anchor="middle" style="white-space: pre;" direction="ltr">Transformed code (assembly, instrumented code, ...)</text><text x="253.5" y="43" font-family="Virgil, Segoe UI Emoji" font-size="20px" fill="#000000" text-anchor="middle" style="white-space: pre;" direction="ltr">Potential bugs (bad practices, null pointers, ...)</text><text x="253.5" y="68" font-family="Virgil, Segoe UI Emoji" font-size="20px" fill="#000000" text-anchor="middle" style="white-space: pre;" direction="ltr">Software artifacts (diagrams, architecture, ...)</text></g></svg>